<mxfile host="65bd71144e">
    <diagram id="-gEcPaA2kAwKzBLmQrBA" name="Página-1">
        <mxGraphModel dx="843" dy="495" grid="1" gridSize="10" guides="1" tooltips="1" connect="1" arrows="1" fold="1" page="1" pageScale="1" pageWidth="827" pageHeight="1169" math="0" shadow="0">
            <root>
                <mxCell id="0"/>
                <mxCell id="1" parent="0"/>
                <mxCell id="2" value="Punto 2D" style="swimlane;" vertex="1" parent="1">
                    <mxGeometry x="100" y="87.5" width="200" height="150" as="geometry"/>
                </mxCell>
                <mxCell id="5" value="x : 1 Número&lt;br&gt;y : 1 Número&lt;br&gt;a : 1 Número&lt;br&gt;b : 1 Número" style="text;html=1;align=center;verticalAlign=middle;resizable=0;points=[];autosize=1;strokeColor=none;fillColor=none;" vertex="1" parent="2">
                    <mxGeometry x="60" y="30" width="80" height="60" as="geometry"/>
                </mxCell>
                <mxCell id="6" value="punto()&lt;br&gt;trasladar()" style="text;html=1;align=center;verticalAlign=middle;resizable=0;points=[];autosize=1;strokeColor=none;fillColor=none;" vertex="1" parent="2">
                    <mxGeometry x="65" y="110" width="70" height="30" as="geometry"/>
                </mxCell>
                <mxCell id="7" value="" style="endArrow=none;html=1;" edge="1" parent="2">
                    <mxGeometry width="50" height="50" relative="1" as="geometry">
                        <mxPoint y="100" as="sourcePoint"/>
                        <mxPoint x="200" y="100" as="targetPoint"/>
                    </mxGeometry>
                </mxCell>
                <mxCell id="3" value="Punto 3D" style="swimlane;" vertex="1" parent="1">
                    <mxGeometry x="450" y="110" width="200" height="120" as="geometry"/>
                </mxCell>
                <mxCell id="4" value="z : 1 Número&lt;br&gt;c : 1 Número" style="text;html=1;align=center;verticalAlign=middle;resizable=0;points=[];autosize=1;strokeColor=none;fillColor=none;" vertex="1" parent="3">
                    <mxGeometry x="60" y="35" width="80" height="30" as="geometry"/>
                </mxCell>
                <mxCell id="9" value="" style="endArrow=none;html=1;" edge="1" parent="3">
                    <mxGeometry width="50" height="50" relative="1" as="geometry">
                        <mxPoint y="70" as="sourcePoint"/>
                        <mxPoint x="200" y="70" as="targetPoint"/>
                    </mxGeometry>
                </mxCell>
                <mxCell id="8" value="punto()&lt;br&gt;trasladar()" style="text;html=1;align=center;verticalAlign=middle;resizable=0;points=[];autosize=1;strokeColor=none;fillColor=none;" vertex="1" parent="3">
                    <mxGeometry x="65" y="80" width="70" height="30" as="geometry"/>
                </mxCell>
                <mxCell id="10" value="" style="triangle;whiteSpace=wrap;html=1;rotation=-180;" vertex="1" parent="1">
                    <mxGeometry x="300" y="155" width="20" height="15" as="geometry"/>
                </mxCell>
                <mxCell id="11" value="" style="endArrow=none;html=1;exitX=0;exitY=0.5;exitDx=0;exitDy=0;" edge="1" parent="1" source="10">
                    <mxGeometry width="50" height="50" relative="1" as="geometry">
                        <mxPoint x="320" y="220" as="sourcePoint"/>
                        <mxPoint x="450" y="163" as="targetPoint"/>
                    </mxGeometry>
                </mxCell>
                <mxCell id="12" value="0.. *" style="text;html=1;align=center;verticalAlign=middle;resizable=0;points=[];autosize=1;strokeColor=none;fillColor=none;" vertex="1" parent="1">
                    <mxGeometry x="410" y="140" width="40" height="20" as="geometry"/>
                </mxCell>
                <mxCell id="13" value="1.. *" style="text;html=1;align=center;verticalAlign=middle;resizable=0;points=[];autosize=1;strokeColor=none;fillColor=none;" vertex="1" parent="1">
                    <mxGeometry x="310" y="140" width="40" height="20" as="geometry"/>
                </mxCell>
            </root>
        </mxGraphModel>
    </diagram>
</mxfile>